<svg xmlns="http://www.w3.org/2000/svg" width="17" height="15" fill="none" viewBox="0 0 17 15"><path fill="#000" fill-opacity=".3" d="M6.14 10c.3 0 .5-.2.5-.5s-.2-.5-.5-.5-.5.2-.5.5.2.5.5.5Z"/><path fill="#000" fill-opacity=".3" d="M15.4 2h-2V0h-1v2h-8V0h-1v2h-2c-.6 0-1 .4-1 1v11c0 .5.4 1 1 1h14c.5 0 1-.5 1-1V3c0-.6-.5-1-1-1Zm0 12h-14V7h14v7Zm-14-8V3h2v2h1V3h8v2h1V3h2v3h-14Z"/><path fill="#000" fill-opacity=".3" d="M8.4 10c.3 0 .5-.2.5-.5S8.7 9 8.4 9s-.5.2-.5.5.2.5.5.5ZM10.64 10c.3 0 .5-.2.5-.5s-.2-.5-.5-.5-.5.2-.5.5.2.5.5.5ZM6.14 11c-.3 0-.5.2-.5.5s.2.5.5.5.5-.2.5-.5-.2-.5-.5-.5ZM3.9 10c.3 0 .5-.2.5-.5S4.2 9 3.9 9s-.5.2-.5.5.2.5.5.5ZM3.9 11c-.3 0-.5.2-.5.5s.2.5.5.5.5-.2.5-.5-.2-.5-.5-.5ZM8.4 11c-.3 0-.5.2-.5.5s.2.5.5.5.5-.2.5-.5-.2-.5-.5-.5ZM10.64 11c-.3 0-.5.2-.5.5s.2.5.5.5.5-.2.5-.5-.2-.5-.5-.5ZM12.9 10c.3 0 .5-.2.5-.5s-.2-.5-.5-.5-.5.2-.5.5.2.5.5.5ZM12.9 11c-.3 0-.5.2-.5.5s.2.5.5.5.5-.2.5-.5-.2-.5-.5-.5Z"/></svg>